<svg width="25" height="24" viewBox="0 0 25 24" fill="none" xmlns="http://www.w3.org/2000/svg">
<path fill-rule="evenodd" clip-rule="evenodd" d="M15.3741 6.12588C15.414 6.16568 15.4457 6.21296 15.4673 6.26501C15.4889 6.31707 15.5 6.37287 15.5 6.42923C15.5 6.48559 15.4889 6.54139 15.4673 6.59344C15.4457 6.6455 15.414 6.69278 15.3741 6.73258L10.5351 11.5708L15.3741 16.409C15.414 16.4488 15.4456 16.4961 15.4671 16.5481C15.4887 16.6002 15.4998 16.656 15.4998 16.7123C15.4998 16.7687 15.4887 16.8244 15.4671 16.8765C15.4456 16.9285 15.414 16.9758 15.3741 17.0157C15.3343 17.0555 15.287 17.0871 15.2349 17.1087C15.1829 17.1302 15.1271 17.1413 15.0708 17.1413C15.0144 17.1413 14.9586 17.1302 14.9066 17.1087C14.8546 17.0871 14.8073 17.0555 14.7674 17.0157L9.62588 11.8741C9.58598 11.8343 9.55432 11.787 9.53272 11.735C9.51112 11.6829 9.5 11.6271 9.5 11.5708C9.5 11.5144 9.51112 11.4586 9.53272 11.4066C9.55432 11.3545 9.58598 11.3072 9.62588 11.2674L14.7674 6.12588C14.8072 6.08598 14.8545 6.05432 14.9066 6.03272C14.9586 6.01112 15.0144 6 15.0708 6C15.1271 6 15.1829 6.01112 15.235 6.03272C15.287 6.05432 15.3343 6.08598 15.3741 6.12588Z" fill="#A6A6A6"/>
</svg>
