<svg aria-hidden="true" style="position: absolute; width: 0; height: 0; overflow: hidden;" version="1.1" xmlns="http://www.w3.org/2000/svg" xmlns:xlink="http://www.w3.org/1999/xlink">
  <defs>
    <symbol id="arrow-down" viewBox="0 0 24 21">
      <path fill-rule="evenodd" clip-rule="evenodd" d="M6.12588 9.12588C6.16568 9.08598 6.21296 9.05432 6.26501 9.03272C6.31707 9.01112 6.37287 9 6.42923 9C6.48559 9 6.54139 9.01112 6.59344 9.03272C6.6455 9.05432 6.69278 9.08598 6.73258 9.12588L11.5708 13.9649L16.409 9.12588C16.4488 9.08604 16.4961 9.05444 16.5481 9.03288C16.6002 9.01132 16.656 9.00022 16.7123 9.00022C16.7687 9.00022 16.8244 9.01132 16.8765 9.03288C16.9285 9.05444 16.9758 9.08604 17.0157 9.12588C17.0555 9.16571 17.0871 9.21301 17.1087 9.26506C17.1302 9.3171 17.1413 9.37289 17.1413 9.42923C17.1413 9.48557 17.1302 9.54135 17.1087 9.5934C17.0871 9.64545 17.0555 9.69274 17.0157 9.73258L11.8741 14.8741C11.8343 14.914 11.787 14.9457 11.735 14.9673C11.6829 14.9889 11.6271 15 11.5708 15C11.5144 15 11.4586 14.9889 11.4066 14.9673C11.3545 14.9457 11.3072 14.914 11.2674 14.8741L6.12588 9.73258C6.08598 9.69278 6.05432 9.6455 6.03272 9.59344C6.01112 9.54139 6 9.48559 6 9.42923C6 9.37287 6.01112 9.31707 6.03272 9.26501C6.05432 9.21296 6.08598 9.16568 6.12588 9.12588Z" fill="white"/>   
    </symbol>
    <symbol id="user" viewBox="0 0 25 24">
      <path d="M12.2734 3C9.70167 3 7.60938 5.0923 7.60938 7.66406C7.60938 10.2358 9.70167 12.3281 12.2734 12.3281C14.8452 12.3281 16.9375 10.2358 16.9375 7.66406C16.9375 5.0923 14.8452 3 12.2734 3Z" fill="white"/>
      <path d="M18.0764 15.3753C16.7995 14.0788 15.1067 13.3647 13.3099 13.3647H11.237C9.44017 13.3647 7.74736 14.0788 6.47045 15.3753C5.19978 16.6655 4.5 18.3685 4.5 20.1708C4.5 20.457 4.73203 20.6891 5.01823 20.6891H19.5286C19.8148 20.6891 20.0469 20.457 20.0469 20.1708C20.0469 18.3685 19.3471 16.6655 18.0764 15.3753Z" fill="white"/>
    </symbol>
    <symbol id="internet" viewBox="0 0 24 21">
      <path d="M17.3877 7.2231C17.3753 7.20408 17.3599 7.18727 17.342 7.17335C16.7333 6.48983 15.9869 5.94281 15.1517 5.56823C14.3164 5.19365 13.4114 5 12.4959 5C11.5805 5 10.6754 5.19365 9.84022 5.56823C9.005 5.94281 8.25854 6.48983 7.64989 7.17335C7.63287 7.18682 7.61813 7.20293 7.60621 7.22107V7.22614C6.78453 8.16576 6.25093 9.32205 6.06922 10.5568C5.88751 11.7915 6.06536 13.0524 6.58153 14.1888C7.0977 15.3251 7.93033 16.2888 8.97989 16.9647C10.0294 17.6406 11.2515 18 12.5 18C13.7485 18 14.9706 17.6406 16.0201 16.9647C17.0697 16.2888 17.9023 15.3251 18.4185 14.1888C18.9346 13.0524 19.1125 11.7915 18.9308 10.5568C18.7491 9.32205 18.2155 8.16576 17.3938 7.22614L17.3877 7.2231ZM17.1846 15.3866C16.7231 15.1174 16.2333 14.8998 15.7241 14.7379C16.0399 13.7565 16.2066 12.7332 16.2187 11.7023H18.5861C18.5428 13.0526 18.0495 14.3496 17.1846 15.3877V15.3866ZM6.40879 11.7023H8.77621C8.78822 12.7336 8.95495 13.7571 9.27082 14.7389C8.76162 14.9008 8.27184 15.1184 7.81035 15.3877C6.94542 14.3496 6.45213 13.0526 6.40879 11.7023ZM7.82559 7.59569C8.28479 7.8625 8.7718 8.07834 9.27793 8.23935C8.95745 9.2272 8.7883 10.2578 8.77621 11.2962H6.40879C6.45306 9.9389 6.95199 8.63574 7.82559 7.59569ZM12.7006 8.72159C13.5928 8.70895 14.4799 8.58481 15.3412 8.35204C15.6452 9.30435 15.8054 10.2967 15.8165 11.2962H12.7006V8.72159ZM12.7006 8.31549V5.42003C13.7304 5.53475 14.6303 6.51547 15.199 7.9693C14.3835 8.18653 13.5444 8.3028 12.7006 8.31549ZM12.2943 8.31549C11.4505 8.30281 10.6114 8.18654 9.7959 7.9693C10.3646 6.51547 11.2645 5.53475 12.2943 5.42003V8.31549ZM12.2943 8.72159V11.2962H9.18246C9.19224 10.2969 9.35107 9.30456 9.65371 8.35204C10.5151 8.5848 11.4022 8.70894 12.2943 8.72159ZM9.18246 11.7023H12.2943V14.2546C11.4021 14.2679 10.515 14.3927 9.65371 14.6262C9.35329 13.6801 9.19449 12.6949 9.18246 11.7023ZM12.2943 14.6607V17.5785C11.2604 17.4628 10.3525 16.474 9.78777 15.009C10.6058 14.7903 11.4477 14.6734 12.2943 14.6607ZM12.7006 14.6607C13.5472 14.6734 14.3891 14.7903 15.2071 15.009C14.6425 16.474 13.7345 17.4628 12.7006 17.5785V14.6607ZM12.7006 14.2546V11.7023H15.8125C15.8003 12.6945 15.6415 13.6795 15.3412 14.6252C14.4799 14.3921 13.5928 14.2676 12.7006 14.2546ZM16.2187 11.2962C16.2066 10.2578 16.0375 9.2272 15.717 8.23935C16.2231 8.07834 16.7101 7.8625 17.1693 7.59569C18.0429 8.63574 18.5419 9.9389 18.5861 11.2962H16.2187ZM16.8941 7.28807C16.4767 7.52213 16.0363 7.71265 15.5799 7.85661C15.2051 6.89416 14.6851 6.11852 14.0757 5.61597C15.1503 5.90561 16.125 6.48389 16.8941 7.28807ZM10.9192 5.61597C10.3098 6.11547 9.79082 6.89314 9.41606 7.85661C8.95964 7.71265 8.51925 7.52213 8.10184 7.28807C8.87063 6.48405 9.84497 5.90578 10.9192 5.61597ZM8.0866 15.6963C8.50562 15.4596 8.9481 15.267 9.40692 15.1217C9.7827 16.0943 10.3047 16.8801 10.9182 17.3826C9.83727 17.0912 8.85758 16.5077 8.0866 15.6963ZM14.0788 17.3826C14.6882 16.875 15.2143 16.0943 15.59 15.1217C16.0489 15.267 16.4913 15.4596 16.9103 15.6963C16.1385 16.5082 15.1577 17.0917 14.0757 17.3826H14.0788Z" fill="#EAEAEA"/>
    </symbol>
    <symbol id="arrow-right-lang" viewBox="0 0 24 21">
      <path d="M5 9.25043C4.99971 9.11237 5.12603 9.00026 5.28211 9C5.35735 8.99988 5.42955 9.02632 5.48269 9.07344L11.4998 14.3964L17.517 9.07345C17.6275 8.9757 17.8066 8.9757 17.9171 9.07345C18.0276 9.17119 18.0276 9.32966 17.9171 9.42741L11.6999 14.9268C11.5895 15.0244 11.4107 15.0244 11.3003 14.9268L5.08309 9.42741C5.02991 9.38054 5 9.31684 5 9.25043Z" fill="#EAEAEA"/>  
    </symbol>
    <symbol id="close" viewBox="0 0 24 24">
      <path d="M13.4099 12.0002L19.7099 5.71019C19.8982 5.52188 20.004 5.26649 20.004 5.00019C20.004 4.73388 19.8982 4.47849 19.7099 4.29019C19.5216 4.10188 19.2662 3.99609 18.9999 3.99609C18.7336 3.99609 18.4782 4.10188 18.2899 4.29019L11.9999 10.5902L5.70994 4.29019C5.52164 4.10188 5.26624 3.99609 4.99994 3.99609C4.73364 3.99609 4.47824 4.10188 4.28994 4.29019C4.10164 4.47849 3.99585 4.73388 3.99585 5.00019C3.99585 5.26649 4.10164 5.52188 4.28994 5.71019L10.5899 12.0002L4.28994 18.2902C4.19621 18.3831 4.12182 18.4937 4.07105 18.6156C4.02028 18.7375 3.99414 18.8682 3.99414 19.0002C3.99414 19.1322 4.02028 19.2629 4.07105 19.3848C4.12182 19.5066 4.19621 19.6172 4.28994 19.7102C4.3829 19.8039 4.4935 19.8783 4.61536 19.9291C4.73722 19.9798 4.86793 20.006 4.99994 20.006C5.13195 20.006 5.26266 19.9798 5.38452 19.9291C5.50638 19.8783 5.61698 19.8039 5.70994 19.7102L11.9999 13.4102L18.2899 19.7102C18.3829 19.8039 18.4935 19.8783 18.6154 19.9291C18.7372 19.9798 18.8679 20.006 18.9999 20.006C19.132 20.006 19.2627 19.9798 19.3845 19.9291C19.5064 19.8783 19.617 19.8039 19.7099 19.7102C19.8037 19.6172 19.8781 19.5066 19.9288 19.3848C19.9796 19.2629 20.0057 19.1322 20.0057 19.0002C20.0057 18.8682 19.9796 18.7375 19.9288 18.6156C19.8781 18.4937 19.8037 18.3831 19.7099 18.2902L13.4099 12.0002Z" fill="#000046"/>     
    </symbol>
    <symbol id="filter" viewBox="0 0 48 48">
      <rect width="48" height="48" rx="8" fill="#F4F6FC"/>
      <path fill-rule="evenodd" clip-rule="evenodd" d="M19.3078 34C19.5875 32.9163 20.5725 32.1143 21.7429 32.1143C22.9133 32.1143 23.8982 32.9163 24.1779 34H37.7714C37.8594 34 37.9462 34.0182 38.0266 34.054C38.1014 34.0873 38.1699 34.1357 38.2265 34.1948C38.2806 34.2514 38.3239 34.3187 38.3535 34.3909C38.3805 34.4576 38.3962 34.5286 38.3993 34.6002C38.4025 34.6688 38.3943 34.7379 38.3748 34.8045C38.3579 34.863 38.3321 34.9189 38.2988 34.9705C38.2259 35.083 38.1165 35.1704 37.9908 35.2175C37.9223 35.2433 37.8487 35.2565 37.7752 35.2571H37.7714H24.1779C23.8982 36.3408 22.9133 37.1428 21.7429 37.1428C20.5725 37.1428 19.5875 36.3408 19.3078 35.2571H12.6286C12.555 35.2571 12.4815 35.2445 12.4124 35.2188C12.2854 35.1722 12.1748 35.0843 12.1012 34.9705C12.0679 34.9189 12.0421 34.863 12.0252 34.8045C12.0057 34.7379 11.9975 34.6688 12.0007 34.6002C12.0038 34.5286 12.0195 34.4576 12.0465 34.3909C12.0761 34.3187 12.1195 34.2514 12.1735 34.1948C12.2301 34.1357 12.2986 34.0873 12.3734 34.054C12.4538 34.0182 12.5406 34 12.6286 34H19.3078ZM21.7429 33.3714C22.4368 33.3714 23 33.9346 23 34.6285C23 35.3225 22.4368 35.8857 21.7429 35.8857C21.0489 35.8857 20.4857 35.3225 20.4857 34.6285C20.4857 33.9346 21.0489 33.3714 21.7429 33.3714ZM29.3649 23.9428C29.6446 22.8592 30.6296 22.0571 31.8 22.0571C32.9704 22.0571 33.9554 22.8592 34.2351 23.9428H37.7714C37.8594 23.9428 37.9462 23.9611 38.0266 23.9969C38.1014 24.0302 38.1699 24.0786 38.2265 24.1377C38.2806 24.1943 38.3239 24.2615 38.3535 24.3338C38.3805 24.4004 38.3962 24.4715 38.3993 24.5431C38.4025 24.6116 38.3943 24.6808 38.3748 24.7474C38.3579 24.8059 38.3321 24.8618 38.2988 24.9134C38.2259 25.0259 38.1165 25.1132 37.9908 25.1604C37.9223 25.1862 37.8487 25.1993 37.7752 25.2H37.7714H34.2351C33.9554 26.2836 32.9704 27.0857 31.8 27.0857C30.6296 27.0857 29.6446 26.2836 29.3649 25.2H12.6286C12.5406 25.2 12.4538 25.1818 12.3734 25.1459C12.2986 25.1126 12.2301 25.0642 12.1735 25.0051C12.1195 24.9486 12.0761 24.8813 12.0465 24.809C12.0195 24.7424 12.0038 24.6714 12.0007 24.5997C11.9975 24.5312 12.0057 24.462 12.0252 24.3954C12.0421 24.337 12.0679 24.281 12.1012 24.2295C12.1748 24.1157 12.2854 24.0277 12.4124 23.9812C12.4815 23.9554 12.555 23.9428 12.6286 23.9428H29.3649ZM31.8 23.3143C32.4939 23.3143 33.0571 23.8775 33.0571 24.5714C33.0571 25.2653 32.4939 25.8285 31.8 25.8285C31.106 25.8285 30.5428 25.2653 30.5428 24.5714C30.5428 23.8775 31.106 23.3143 31.8 23.3143ZM15.2221 13.8857C15.5018 12.8021 16.4868 12 17.6572 12C18.8276 12 19.8125 12.8021 20.0922 13.8857H37.7714C37.8594 13.8857 37.9462 13.9039 38.0266 13.9398C38.1014 13.9731 38.1699 14.0215 38.2265 14.0806C38.2806 14.1371 38.3239 14.2044 38.3535 14.2767C38.3805 14.3433 38.3962 14.4143 38.3993 14.486C38.4025 14.5545 38.3943 14.6237 38.3748 14.6903C38.3579 14.7487 38.3321 14.8047 38.2988 14.8562C38.2259 14.9687 38.1165 15.0561 37.9908 15.1032C37.9223 15.129 37.8487 15.1422 37.7752 15.1429H37.7714H20.0922C19.8125 16.2265 18.8276 17.0286 17.6572 17.0286C16.4868 17.0286 15.5018 16.2265 15.2221 15.1429H12.6286C12.555 15.1429 12.4815 15.1303 12.4124 15.1045C12.2854 15.058 12.1748 14.97 12.1012 14.8562C12.0679 14.8047 12.0421 14.7487 12.0252 14.6903C12.0057 14.6237 11.9975 14.5545 12.0007 14.486C12.0038 14.4143 12.0195 14.3433 12.0465 14.2767C12.0761 14.2044 12.1195 14.1371 12.1735 14.0806C12.2301 14.0215 12.2986 13.9731 12.3734 13.9398C12.4538 13.9039 12.5406 13.8857 12.6286 13.8857H15.2221ZM17.6572 13.2571C18.3511 13.2571 18.9143 13.8203 18.9143 14.5143C18.9143 15.2082 18.3511 15.7714 17.6572 15.7714C16.9632 15.7714 16.4 15.2082 16.4 14.5143C16.4 13.8203 16.9632 13.2571 17.6572 13.2571Z" fill="#000046"/>
    </symbol>
    <symbol id="arrow-down-blue" viewBox="0 0 24 24">
      <path fill-rule="evenodd" clip-rule="evenodd" d="M6.12588 9.12588C6.16568 9.08598 6.21296 9.05432 6.26501 9.03272C6.31707 9.01112 6.37287 9 6.42923 9C6.48559 9 6.54139 9.01112 6.59344 9.03272C6.6455 9.05432 6.69278 9.08598 6.73258 9.12588L11.5708 13.9649L16.409 9.12588C16.4488 9.08604 16.4961 9.05444 16.5481 9.03288C16.6002 9.01132 16.656 9.00022 16.7123 9.00022C16.7687 9.00022 16.8244 9.01132 16.8765 9.03288C16.9285 9.05444 16.9758 9.08604 17.0157 9.12588C17.0555 9.16571 17.0871 9.21301 17.1087 9.26506C17.1302 9.3171 17.1413 9.37289 17.1413 9.42923C17.1413 9.48557 17.1302 9.54135 17.1087 9.5934C17.0871 9.64545 17.0555 9.69274 17.0157 9.73258L11.8741 14.8741C11.8343 14.914 11.787 14.9457 11.735 14.9673C11.6829 14.9889 11.6271 15 11.5708 15C11.5144 15 11.4586 14.9889 11.4066 14.9673C11.3545 14.9457 11.3072 14.914 11.2674 14.8741L6.12588 9.73258C6.08598 9.69278 6.05432 9.6455 6.03272 9.59344C6.01112 9.54139 6 9.48559 6 9.42923C6 9.37287 6.01112 9.31707 6.03272 9.26501C6.05432 9.21296 6.08598 9.16568 6.12588 9.12588Z" fill="#0096C7"/>
    </symbol>
    <symbol id="location-white" viewBox="0 0 24 24">
      <path d="M11.6669 6.68311C10.5716 6.68311 9.68359 7.57107 9.68359 8.66644C9.68359 9.76181 10.5716 10.6498 11.6669 10.6498C12.7618 10.6485 13.649 9.76127 13.6503 8.66644C13.6503 7.57107 12.7623 6.68311 11.6669 6.68311ZM11.6669 10.0831C10.8845 10.0831 10.2503 9.44883 10.2503 8.66644C10.2503 7.88405 10.8845 7.24977 11.6669 7.24977C12.4489 7.25069 13.0827 7.88444 13.0836 8.66644C13.0836 9.44883 12.4493 10.0831 11.6669 10.0831Z" fill="white"/>
      <path d="M11.6667 3C8.53704 3 6 5.53704 6 8.66667C6 11.691 11.2091 19.541 11.4309 19.8739C11.4835 19.9527 11.572 20 11.6667 20C11.7614 20 11.8498 19.9527 11.9024 19.8739C12.1242 19.541 17.3333 11.691 17.3333 8.66667C17.3333 5.53704 14.7963 3 11.6667 3ZM11.6667 19.199C10.6339 17.6061 6.56667 11.1713 6.56667 8.66667C6.56996 5.85136 8.85136 3.56996 11.6667 3.56667C14.482 3.56996 16.7634 5.85136 16.7667 8.66667C16.7667 11.1708 12.6994 17.6061 11.6667 19.199Z" fill="white"/>
    </symbol>
    <symbol id="location" viewBox="0 0 24 25">
      <g clip-path="url(#clip0_3180_6108)">
        <path d="M6.3 6C4.7536 6 3.5 7.2536 3.5 8.8C3.5 10.3464 4.7536 11.6 6.3 11.6C7.84565 11.5982 9.09825 10.3457 9.1 8.8C9.1 7.2536 7.8464 6 6.3 6ZM6.3 10.8C5.19545 10.8 4.3 9.90455 4.3 8.8C4.3 7.69545 5.19545 6.8 6.3 6.8C7.404 6.8013 8.2987 7.696 8.3 8.8C8.3 9.90455 7.40455 10.8 6.3 10.8Z" fill="#000046"/>
        <path d="M6.5 3C3.18627 3 0.5 5.68628 0.5 9C0.5 12.2022 6.0155 20.514 6.2504 20.8665C6.30605 20.9499 6.39972 21 6.5 21C6.60027 21 6.69395 20.9499 6.7496 20.8665C6.9845 20.514 12.5 12.2022 12.5 9C12.5 5.68628 9.81372 3 6.5 3ZM6.5 20.1519C5.4065 18.4653 1.1 11.652 1.1 9C1.10349 6.01909 3.51909 3.60349 6.5 3.6C9.48091 3.60349 11.8965 6.01909 11.9 9C11.9 11.6514 7.5935 18.4653 6.5 20.1519Z" fill="#000046"/>
      </g>
      <defs>
        <clipPath id="clip0_3180_6108">
          <rect width="24" height="24" fill="white" transform="translate(0.5)"/>
        </clipPath>
      </defs>
    </symbol>
    <symbol id="heart" viewBox="0 0 25 24">
      <g clip-path="url(#clip0_3180_6127)">
        <path d="M17.9 1C15.75 1.00332 13.7359 2.05195 12.5 3.81113C11.2641 2.05195 9.25 1.00332 7.1 1C3.58398 1 0.5 4.27129 0.5 8C0.5 11.634 2.55195 15.3768 6.43438 18.824C8.2332 20.4182 10.2064 21.8039 12.3164 22.9553C12.4316 23.0146 12.5684 23.0146 12.6836 22.9553C14.7928 21.8039 16.7654 20.418 18.5637 18.824C22.448 15.3768 24.5 11.634 24.5 8C24.5 4.27129 21.416 1 17.9 1V1ZM12.5 22.1451C11.0309 21.3344 1.3 15.6703 1.3 8C1.3 4.69727 4.00996 1.8 7.1 1.8C9.19336 1.80371 11.123 2.93301 12.1516 4.75645C12.2285 4.87402 12.3596 4.94473 12.5 4.94473C12.6404 4.94473 12.7715 4.87402 12.8484 4.75645C13.877 2.93301 15.8066 1.80371 17.9 1.8C20.99 1.8 23.7 4.69727 23.7 8C23.7 15.6703 13.9691 21.3344 12.5 22.1451Z" fill="#F42C3C"/>
      </g>
      <defs>
        <clipPath id="clip0_3180_6127">
          <rect width="24" height="24" fill="white" transform="translate(0.5)"/>
        </clipPath>
      </defs>
    </symbol>
    <symbol id="settings" viewBox="0 0 25 24">
      <path d="M11.1875 5.41406C11.1875 5.76216 11.3258 6.096 11.5719 6.34214C11.8181 6.58828 12.1519 6.72656 12.5 6.72656C12.8481 6.72656 13.1819 6.58828 13.4281 6.34214C13.6742 6.096 13.8125 5.76216 13.8125 5.41406C13.8125 5.06597 13.6742 4.73213 13.4281 4.48598C13.1819 4.23984 12.8481 4.10156 12.5 4.10156C12.1519 4.10156 11.8181 4.23984 11.5719 4.48598C11.3258 4.73213 11.1875 5.06597 11.1875 5.41406ZM11.1875 11.9766C11.1875 12.3247 11.3258 12.6585 11.5719 12.9046C11.8181 13.1508 12.1519 13.2891 12.5 13.2891C12.8481 13.2891 13.1819 13.1508 13.4281 12.9046C13.6742 12.6585 13.8125 12.3247 13.8125 11.9766C13.8125 11.6285 13.6742 11.2946 13.4281 11.0485C13.1819 10.8023 12.8481 10.6641 12.5 10.6641C12.1519 10.6641 11.8181 10.8023 11.5719 11.0485C11.3258 11.2946 11.1875 11.6285 11.1875 11.9766ZM11.1875 18.5391C11.1875 18.8872 11.3258 19.221 11.5719 19.4671C11.8181 19.7133 12.1519 19.8516 12.5 19.8516C12.8481 19.8516 13.1819 19.7133 13.4281 19.4671C13.6742 19.221 13.8125 18.8872 13.8125 18.5391C13.8125 18.191 13.6742 17.8571 13.4281 17.611C13.1819 17.3648 12.8481 17.2266 12.5 17.2266C12.1519 17.2266 11.8181 17.3648 11.5719 17.611C11.3258 17.8571 11.1875 18.191 11.1875 18.5391Z" fill="#0096C7"/>
    </symbol>
    <symbol id="twitter" viewBox="0 0 25 24">
      <path d="M21.5 5.89415C20.7934 6.21538 20.0406 6.42831 19.2556 6.53169C20.0631 6.032 20.6794 5.24677 20.9692 4.30031C20.2163 4.76554 19.3851 5.09415 18.4992 5.27754C17.7843 4.48862 16.7654 4 15.6539 4C13.4974 4 11.7613 5.81415 11.7613 8.03815C11.7613 8.35815 11.7874 8.66585 11.8516 8.95877C8.61325 8.79508 5.74781 7.18646 3.82287 4.736C3.48681 5.34031 3.28969 6.032 3.28969 6.77662C3.28969 8.17477 3.98438 9.41415 5.01988 10.1317C4.39406 10.1194 3.78013 9.93108 3.26 9.63446C3.26 9.64677 3.26 9.66277 3.26 9.67877C3.26 11.6406 4.61019 13.2702 6.38075 13.6455C6.06369 13.7354 5.71812 13.7785 5.3595 13.7785C5.11013 13.7785 4.85837 13.7637 4.62206 13.7095C5.12675 15.3083 6.55888 16.4837 8.26175 16.5218C6.9365 17.5963 5.25381 18.2437 3.43219 18.2437C3.11275 18.2437 2.80637 18.2289 2.5 18.1883C4.22544 19.3415 6.27031 20 8.4755 20C15.6432 20 19.562 13.8462 19.562 8.512C19.562 8.33354 19.5561 8.16123 19.5478 7.99015C20.3208 7.42154 20.9704 6.71138 21.5 5.89415Z" fill="white"/>
    </symbol>
    <symbol id="instagram" viewBox="0 0 25 24">
      <path d="M21.4459 8.28937C21.4021 7.33136 21.2499 6.67712 21.0275 6.10474C20.8015 5.5042 20.4472 4.96024 19.9894 4.51062C19.5399 4.05276 18.9958 3.69832 18.3953 3.47227C17.8227 3.24994 17.1686 3.09792 16.2106 3.05438C15.2508 3.01044 14.9442 3 12.5 3C10.0558 3 9.74916 3.01044 8.78937 3.05411C7.83136 3.09792 7.17726 3.25008 6.60474 3.47255C6.0042 3.69846 5.46024 4.05276 5.01062 4.51062C4.55276 4.9601 4.19832 5.50406 3.97227 6.1046C3.74994 6.67712 3.59792 7.33136 3.55438 8.28923C3.51044 9.24916 3.5 9.55568 3.5 11.9999C3.5 14.4442 3.51044 14.7508 3.55438 15.7106C3.59805 16.6685 3.75021 17.3227 3.97269 17.8953C4.19859 18.4957 4.5529 19.0398 5.01076 19.4892C5.46024 19.9471 6.00433 20.3014 6.60487 20.5273C7.17726 20.7499 7.8315 20.9019 8.78951 20.9458C9.74944 20.9896 10.056 20.9999 12.5001 20.9999C14.9443 20.9999 15.251 20.9896 16.2108 20.9458C17.1688 20.9019 17.8229 20.7499 18.3954 20.5273C19.6043 20.0598 20.56 19.1042 21.0275 17.8953C21.2501 17.3227 21.4021 16.6685 21.4459 15.7106C21.4896 14.7507 21.5 14.4442 21.5 12C21.5 9.55568 21.4896 9.24916 21.4459 8.28937ZM19.8258 15.6369C19.7859 16.5144 19.6392 16.991 19.516 17.308C19.2132 18.093 18.5929 18.7133 17.8079 19.0161C17.4908 19.1393 17.0143 19.286 16.1367 19.326C15.1879 19.3694 14.9033 19.3784 12.5 19.3784C10.0966 19.3784 9.81206 19.3694 8.86311 19.326C7.98572 19.286 7.50919 19.1393 7.19196 19.0161C6.80112 18.8718 6.44749 18.6418 6.15718 18.3428C5.85822 18.0525 5.62819 17.699 5.48386 17.308C5.36067 16.991 5.214 16.5144 5.17404 15.6369C5.13078 14.6879 5.12158 14.4033 5.12158 12.0001C5.12158 9.59688 5.13078 9.31233 5.17404 8.36325C5.21414 7.48572 5.36067 7.00919 5.48386 6.69209C5.62819 6.30112 5.85835 5.94749 6.15718 5.65718C6.44749 5.35822 6.80112 5.12819 7.19209 4.98399C7.50919 4.86067 7.98572 4.71414 8.86325 4.67404C9.81219 4.63078 10.0969 4.62158 12.5 4.62158H12.4999C14.903 4.62158 15.1877 4.63078 16.1367 4.67418C17.0143 4.71414 17.4907 4.86081 17.8079 4.98399C18.1987 5.12833 18.5524 5.35835 18.8427 5.65718C19.1416 5.94749 19.3717 6.30112 19.5159 6.69209C19.6392 7.00919 19.7859 7.48572 19.8258 8.36325C19.8691 9.31219 19.8783 9.59688 19.8783 12C19.8783 14.4033 19.8692 14.6878 19.8258 15.6369Z" fill="white"/>
      <path d="M12.4995 7.37793C9.94707 7.37793 7.87793 9.4472 7.87793 11.9996C7.87793 14.552 9.94707 16.6211 12.4995 16.6211C15.052 16.6211 17.1211 14.552 17.1211 11.9996C17.1211 9.4472 15.052 7.37793 12.4995 7.37793ZM12.4995 14.9996C10.8427 14.9994 9.49951 13.6563 9.49965 11.9995C9.49965 10.3427 10.8427 8.99951 12.4996 8.99951C14.1565 8.99965 15.4996 10.3427 15.4996 11.9995C15.4996 13.6563 14.1563 14.9996 12.4995 14.9996Z" fill="white"/>
      <path d="M18.3827 7.19533C18.3827 7.79175 17.8992 8.27528 17.3027 8.27528C16.7062 8.27528 16.2227 7.79175 16.2227 7.19533C16.2227 6.59877 16.7062 6.11523 17.3027 6.11523C17.8992 6.11523 18.3827 6.59877 18.3827 7.19533Z" fill="#FDFDFD"/>
    </symbol>
    <symbol id="linkedin" viewBox="0 0 25 24">
      <path d="M21.4935 22V21.9992H21.4983V15.031C21.4983 11.6221 20.7644 8.99609 16.7792 8.99609C14.8633 8.99609 13.5777 10.0474 13.0528 11.0441H12.9974V9.31434H9.21875V21.9992H13.1533V15.7181C13.1533 14.0643 13.4668 12.4652 15.5149 12.4652C17.5328 12.4652 17.5629 14.3525 17.5629 15.8242V22H21.4935Z" fill="white"/>
      <path d="M2.81348 9.31543H6.75281V22.0003H2.81348V9.31543Z" fill="white"/>
      <path d="M4.78158 3C3.52204 3 2.5 4.02204 2.5 5.28158C2.5 6.54113 3.52204 7.58454 4.78158 7.58454C6.04113 7.58454 7.06317 6.54113 7.06317 5.28158C7.06238 4.02204 6.04033 3 4.78158 3V3Z" fill="white"/>
    </symbol>
    <symbol id="facebook" viewBox="0 0 25 24">
      <path d="M15.4918 4.65292H17.5V1.15492C17.1535 1.10725 15.962 1 14.5742 1C8.22044 1 9.94913 8.19583 9.69615 9.25H6.5V13.1605H9.69523V23H13.6127V13.1614H16.6787L17.1654 9.25092H13.6118C13.7841 6.66225 12.9143 4.65292 15.4918 4.65292Z" fill="white"/>
    </symbol>
    <symbol id="youtube" viewBox="0 0 25 24">
      <path d="M21.6055 7.25273C21.0925 6.34036 20.5359 6.17255 19.4025 6.10873C18.2704 6.03191 15.4234 6 12.9569 6C10.4857 6 7.63755 6.03191 6.50655 6.10755C5.37555 6.17255 4.81773 6.33918 4.30009 7.25273C3.77182 8.16391 3.5 9.73336 3.5 12.4965C3.5 12.4988 3.5 12.5 3.5 12.5C3.5 12.5024 3.5 12.5035 3.5 12.5035V12.5059C3.5 15.2572 3.77182 16.8385 4.30009 17.7402C4.81773 18.6525 5.37436 18.818 6.50536 18.8948C7.63755 18.961 10.4857 19 12.9569 19C15.4234 19 18.2704 18.961 19.4037 18.896C20.5371 18.8192 21.0937 18.6537 21.6066 17.7414C22.1396 16.8396 22.4091 15.2584 22.4091 12.5071C22.4091 12.5071 22.4091 12.5035 22.4091 12.5012C22.4091 12.5012 22.4091 12.4988 22.4091 12.4976C22.4091 9.73336 22.1396 8.16391 21.6055 7.25273Z" fill="white"/>
      <path d="M10.5898 16.046V8.95508L16.4989 12.5005L10.5898 16.046Z" fill="#2A172D"/>
    </symbol>
    <symbol id="whatsapp" viewBox="0 0 25 24">
      <path fill-rule="evenodd" clip-rule="evenodd" d="M18.535 6.3982C16.9907 4.85254 14.9368 4.00087 12.7486 4C8.23991 4 4.5704 7.66814 4.56859 12.1769C4.56799 13.6181 4.94465 15.025 5.66049 16.265L4.5 20.5025L8.83633 19.3654C10.0311 20.0168 11.3763 20.3602 12.7453 20.3607H12.7487C17.257 20.3607 20.9268 16.6921 20.9286 12.1834C20.9295 9.99838 20.0794 7.94386 18.535 6.3982ZM12.7487 18.9797H12.7459C11.5259 18.9792 10.3294 18.6515 9.28547 18.0323L9.03719 17.885L6.46395 18.5598L7.15079 16.0517L6.9891 15.7946C6.30853 14.7124 5.94908 13.4616 5.94962 12.1774C5.9511 8.42996 9.00108 5.3811 12.7513 5.3811C14.5673 5.3818 16.2743 6.08973 17.558 7.37441C18.8417 8.65909 19.5482 10.3668 19.5475 12.1829C19.546 15.9306 16.4961 18.9797 12.7487 18.9797Z" fill="white"/>
      <path d="M12.7487 18.9797H12.7459C11.5259 18.9792 10.3294 18.6515 9.28547 18.0323L9.03719 17.885L6.46395 18.5598L7.15079 16.0517L6.9891 15.7946C6.30853 14.7124 5.94908 13.4616 5.94962 12.1774C5.9511 8.42996 9.00108 5.3811 12.7513 5.3811C14.5673 5.3818 16.2743 6.08973 17.558 7.37441C18.8417 8.65909 19.5482 10.3668 19.5475 12.1829C19.546 15.9306 16.4961 18.9797 12.7487 18.9797Z" fill="white"/>
      <path fill-rule="evenodd" clip-rule="evenodd" d="M10.0047 16.1378C10.0623 16.1726 10.1806 16.1725 10.4518 16.1723C11.6029 16.1713 12.5971 16.1677 13.3043 16.1677C16.6048 16.1677 16.518 12.6932 14.9749 12.2597C15.2009 11.8593 16.2307 11.1071 15.5938 9.55232C14.964 8.0149 12.2555 8.36378 10.4032 8.36469C9.71778 8.36478 9.82026 8.87123 9.82378 9.65865C9.82941 10.9059 9.82479 14.2818 9.82396 15.7412C9.82378 16.037 9.91305 16.0825 10.0047 16.1378ZM11.4328 14.8645C11.7444 14.8645 12.4795 14.8645 13.1096 14.8635C13.8231 14.8624 14.4585 14.5287 14.4427 13.8183C14.431 13.1492 13.9858 12.9296 13.368 12.8683C12.7794 12.8739 12.1063 12.8739 11.4328 12.8739V14.8645H11.4328ZM11.4328 11.53C12.6742 11.513 13.1532 11.5801 13.831 11.4103C14.2967 11.1459 14.5001 10.1655 13.8336 9.8325C13.3705 9.60114 12.0021 9.6803 11.4328 9.70401V11.53V11.53Z" fill="#2A172D"/>
    </symbol>
  </defs>
</svg>
